# xmcd
#
# Track frame offsets: 
#        150
#        20071
#        40634
#        61628
#        81585
#        105214
#        120026
#        133567
#        159945
#        180731
#        198838
#
# Disc length: 2906 seconds
#
# Revision: 0
# Processed by: cddbd v1.5.2PL0 Copyright (c) Steve Scherf et al.
# Submitted via: ExactAudioCopyFreeDBPlugin 1.0
#
DISCID=790b580b
DTITLE=Spencer Bohren - Tempered Steel
DYEAR=2013
DGENRE=Blues
TTITLE0=Ring Them Bells
TTITLE1=Money Blues
TTITLE2=Suite Steel
TTITLE3=No More Cane on the Brazos
TTITLE4=Hallelujah
TTITLE5=Wayfaring Stranger
TTITLE6=Down in Central tennessee
TTITLE7=Broke Down Engine
TTITLE8=Hard Times
TTITLE9=Bobby Jo
TTITLE10=Just Like a Woman
EXTD=
EXTT0=
EXTT1=
EXTT2=
EXTT3=
EXTT4=
EXTT5=
EXTT6=
EXTT7=
EXTT8=
EXTT9=
EXTT10=
PLAYORDER=
